<svg xmlns="http://www.w3.org/2000/svg" viewBox="0 0 512 512">
    <!-- SVG representing a hurricane/vortex in Warm Gold (#E6B930) -->
    <path fill="#E6B930" d="M12.9 248.6c-2.4 12-3.9 24.3-4.5 36.8-1 19.9 2.2 40.1 9.3 58.7 13.9 36.3 42 64.9 77.2 78.6 30 11.7 63 12.8 93.9 3.5 28-8.4 52.8-25.5 70.8-48.4-32.3 4.2-64.8-5.3-90.1-26.6-26.7-22.4-41.9-55.5-41.9-90.2c0-29.3 11-57.5 30.7-79.3 22.8-25.2 55.7-39.7 90.2-39.7 19.3 0 38.3 4.5 55.6 13 18.5 9.1 34.3 22.7 45.8 39.5l30.6-35.3c-23.7-27.4-55.3-46.7-90.9-54.8-21.7-5-43.9-5.3-65.7-1-18.7 3.7-36.9 10.9-53.5 21.2-34.9 21.7-61 54.7-73.4 93.8-10.6 33.3-10.3 69.1.9 102.3-25.3-17.7-44.4-44-53.5-74.3-10.2-34.1-8.5-70.9 4.7-104.1 11.2-28.3 29.5-52.9 53-71.5L118 42c-29.6 18.2-53.8 43.6-70.1 73.8-19.1 35.4-24.8 76.5-16.1 115.8 6.7-19.7 19.6-36.9 36.6-48.9 21.1-14.9 46.9-22.9 73.1-22.9 35.5 0 69.5 15.1 93.6 41.5 20 21.9 31.1 50.4 31.1 79.9 0 35.5-15.9 69.2-43.8 91.3-24.8 19.6-56.3 28-87.7 23.9-20.9-2.7-40.8-11.7-56.4-25.8L73.6 422c22.8 28.5 54.3 48.6 90.1 57.3 22.7 5.5 46.1 5.7 68.8 1 19.5-4 38.4-11.9 55.4-23 35.6-23.2 61.8-57.9 73.8-98.8 10.3-35 9.1-72.3-3.2-106.6 25.9 19.2 45 47.7 53.6 80.4 9.6 36.5 6.9 75.6-7.8 110.4-12.5 29.7-32.5 55.1-57.7 74.2l31.1 36.5c31-19.4 56.1-46.7 72.8-79 19.6-37.9 25.1-81.8 15.6-123.7-7.2 21.1-20.8 39.5-39 52.3-22.6 15.9-50.1 24.5-78.1 24.5-38.1 0-74.6-16.1-100.5-44.4-21.5-23.5-33.4-54-33.4-85.6 0-38.1 17.1-74.2 46.9-97.9 26.5-21.1 60.3-30.1 94.1-25.7 22.4 2.9 43.7 12.6 60.4 27.7l14.3-16.5c-24.4-30.5-58.1-51.9-96.4-61.1-23.7-5.7-48.2-5.8-71.9-1-20.8 4.2-40.9 12.6-59 24.6-38 25.1-66 62.4-78.7 106.1-10.9 37.6-9.6 77.8 3.7 114.7-27.7-20.6-48.2-51.1-57.4-86.1-9.9-38.1-7.4-78.8 7.3-115.1 12.9-31.9 33.7-59.2 60.1-79.7L96.2 12C63.6 32.3 37.5 61.2 20.3 95.3.3 134.9-5.4 180.7 4.1 224.5c7.4-22 21.5-41.2 40.2-54.6 23.4-16.8 51.9-25.8 81-25.8 39.7 0 77.6 16.9 104.5 46.5 22.4 24.7 34.7 56.6 34.7 89.8 0 39.8-17.8 77.7-48.9 102.5-27.7 22.1-63 31.5-98.3 26.9-23.4-3.1-45.7-13.2-63.2-29L39.8 398c25.4 31.9 60.6 54.4 100.5 64 24.8 6 50.4 6.1 75.1 1 21.7-4.4 42.7-13.2 61.6-25.7 39.7-26.2 69-65.2 82.3-111 11.4-39.3 10.1-81.3-3.9-119.8 29 21.5 50.4 53.4 60.1 90.1 10.3 39.9 7.7 82.4-7.6 120.4-13.5 33.4-35.3 61.9-62.9 83.3l32.5 38.2c32.5-20.3 58.8-48.9 76.3-82.8 20.5-39.7 26.3-85.7 16.3-129.6z"/>
</svg>
